<?xml version="1.0" encoding="UTF-8" standalone="no"?><!DOCTYPE svg PUBLIC "-//W3C//DTD SVG 1.1//EN" "http://www.w3.org/Graphics/SVG/1.1/DTD/svg11.dtd"><svg width="100%" height="100%" viewBox="0 0 10 8" version="1.1" xmlns="http://www.w3.org/2000/svg" xmlns:xlink="http://www.w3.org/1999/xlink" xml:space="preserve" xmlns:serif="http://www.serif.com/" style="fill-rule:evenodd;clip-rule:evenodd;stroke-linejoin:round;stroke-miterlimit:2;"><rect id="Artboard2" x="0" y="0" width="9.722" height="7.513" style="fill:none;"/><g><path d="M1.292,2.876l3.812,-0.018l1.673,-0.791l1.295,-0.054l0.018,3.327l-1.277,0.036l-1.619,-0.773l-3.92,-0.036l0.018,-1.691Z" style="fill:#fff;"/><path d="M7.16,2.338l0,2.794l0.605,0l0,-2.794l-0.605,0Zm-0.507,3.302c-0.054,-0.054 -0.087,-0.128 -0.087,-0.211l0,-3.388c0,-0.164 0.133,-0.297 0.297,-0.297l1.199,0c0.164,0 0.297,0.133 0.297,0.297l0,3.389c0,0.164 -0.133,0.297 -0.297,0.297l-1.199,0c-0.082,0 -0.156,-0.034 -0.21,-0.087Z" style="fill:#333;fill-rule:nonzero;"/><path d="M1.027,4.789c-0.089,-0.089 -0.143,-0.213 -0.143,-0.351l0,-1.401c0,-0.134 0.051,-0.258 0.143,-0.35c0.092,-0.093 0.217,-0.143 0.35,-0.143l3.731,0l1.635,-0.771l0.253,0.538l-1.695,0.799c-0.04,0.018 -0.083,0.028 -0.127,0.028l-3.696,0l0,1.199l3.696,0c0.044,0 0.087,0.01 0.127,0.028l1.695,0.799l-0.253,0.538l-1.635,-0.771l-3.731,0c-0.138,0 -0.261,-0.054 -0.35,-0.142Z" style="fill:#333;fill-rule:nonzero;"/><path d="M3.465,3.948c-0.054,-0.054 -0.087,-0.128 -0.087,-0.21c0,-0.165 0.133,-0.298 0.297,-0.298l0.799,0c0.164,0 0.297,0.133 0.297,0.298c0,0.164 -0.133,0.297 -0.297,0.297l-0.799,0c-0.082,0 -0.156,-0.034 -0.21,-0.087Z" style="fill:#333;fill-rule:nonzero;"/></g></svg>