<?xml version="1.0" encoding="UTF-8" standalone="no"?><!DOCTYPE svg PUBLIC "-//W3C//DTD SVG 1.1//EN" "http://www.w3.org/Graphics/SVG/1.1/DTD/svg11.dtd"><svg width="100%" height="100%" viewBox="0 0 41 32" version="1.1" xmlns="http://www.w3.org/2000/svg" xmlns:xlink="http://www.w3.org/1999/xlink" xml:space="preserve" xmlns:serif="http://www.serif.com/" style="fill-rule:evenodd;clip-rule:evenodd;stroke-linejoin:round;stroke-miterlimit:2;"><rect id="Artboard2" x="0" y="0" width="40.51" height="31.306" style="fill:none;"/><g><path d="M5.384,11.985l15.884,-0.075l6.969,-3.297l5.394,-0.225l0.075,13.862l-5.319,0.149l-6.744,-3.221l-16.334,-0.15l0.075,-7.043Z" style="fill:#e6e6e6;"/><path d="M29.835,9.744l0,11.64l2.518,0l0,-11.641l-2.518,0.001Zm-2.114,13.754c-0.224,-0.224 -0.362,-0.533 -0.362,-0.875l-0.001,-14.118c0,-0.684 0.555,-1.239 1.238,-1.238l4.995,0c0.685,0 1.239,0.554 1.239,1.238l0,14.118c0,0.684 -0.555,1.238 -1.239,1.238l-4.995,0c-0.341,0 -0.651,-0.138 -0.875,-0.363Z" style="fill:#333;fill-rule:nonzero;"/><path d="M4.279,19.952c-0.37,-0.369 -0.596,-0.884 -0.596,-1.46l0,-5.838c0,-0.556 0.212,-1.074 0.596,-1.459c0.385,-0.385 0.903,-0.596 1.46,-0.596l15.543,0l6.814,-3.21l1.055,2.241l-7.064,3.327c-0.165,0.078 -0.345,0.119 -0.527,0.118l-15.4,0l-0.001,4.996l15.4,0c0.183,0 0.363,0.04 0.528,0.118l7.064,3.328l-1.056,2.24l-6.813,-3.209l-15.543,0c-0.576,0 -1.091,-0.226 -1.46,-0.596Z" style="fill:#333;fill-rule:nonzero;"/><path d="M14.437,16.449c-0.224,-0.224 -0.363,-0.534 -0.363,-0.876c0,-0.684 0.555,-1.239 1.239,-1.238l3.327,0c0.684,-0.001 1.239,0.554 1.239,1.238c0,0.684 -0.555,1.239 -1.239,1.238l-3.327,0c-0.342,0.001 -0.652,-0.138 -0.876,-0.362Z" style="fill:#333;fill-rule:nonzero;"/></g></svg>