<?xml version="1.0" encoding="UTF-8" standalone="no"?>
<!DOCTYPE svg PUBLIC "-//W3C//DTD SVG 1.1//EN" "http://www.w3.org/Graphics/SVG/1.1/DTD/svg11.dtd">
<svg width="100%" height="100%" viewBox="0 0 530 522" version="1.1" xmlns="http://www.w3.org/2000/svg" xmlns:xlink="http://www.w3.org/1999/xlink" xml:space="preserve" xmlns:serif="http://www.serif.com/" style="fill-rule:evenodd;clip-rule:evenodd;stroke-linejoin:round;stroke-miterlimit:2;">
    <g transform="matrix(1,0,0,1,0,-948)">
        <g id="Artboard2" transform="matrix(1.17281,0,0,1.51998,-919.514,149.786)">
            <rect x="784.025" y="525.508" width="451.103" height="342.445" style="fill:none;"/>
            <g transform="matrix(5.05166,0,0,3.89784,757.602,500.552)">
                <path d="M29.5,25.5C32,25.5 34.1,23.4 34.1,20.9C34.1,18.4 32,16.3 29.5,16.3C27,16.3 24.9,18.4 24.9,20.9C24.9,23.4 27,25.5 29.5,25.5ZM27,58C27,58.7 27.6,59.3 28.3,59.3C29,59.3 29.6,58.7 29.6,58C29.6,57.3 29,56.7 28.3,56.7C27.6,56.7 27,57.3 27,58ZM36.2,31.3C37.3,31.3 38.1,30.4 38.1,29.4C38.1,28.3 37.2,27.5 36.2,27.5C35.1,27.5 34.3,28.4 34.3,29.4C34.3,30.4 35.1,31.3 36.2,31.3ZM21.1,48.6C23.6,48.6 25.7,46.5 25.7,44C25.7,41.5 23.6,39.4 21.1,39.4C18.6,39.4 16.5,41.5 16.5,44C16.6,46.5 18.6,48.6 21.1,48.6ZM14.5,37.8C15.6,37.8 16.4,36.9 16.4,35.9C16.4,34.8 15.5,34 14.5,34C13.4,34 12.6,34.9 12.6,35.9C12.6,37 13.4,37.8 14.5,37.8ZM13.8,42C13.8,41.3 13.2,40.7 12.5,40.7C11.8,40.7 11.2,41.3 11.2,42C11.2,42.7 11.8,43.3 12.5,43.3C13.2,43.3 13.8,42.7 13.8,42ZM19.9,31.2C21.7,31.2 23.1,29.8 23.1,28C23.1,26.2 21.7,24.8 19.9,24.8C18.1,24.8 16.7,26.2 16.7,28C16.7,29.8 18.1,31.2 19.9,31.2ZM58.8,13.6C59.5,13.6 60.1,13 60.1,12.3C60.1,11.6 59.5,11 58.8,11C58.1,11 57.5,11.6 57.5,12.3C57.5,13 58.1,13.6 58.8,13.6ZM23.8,57.5C23.8,54.4 21.3,51.9 18.2,51.9C15.1,51.9 12.6,54.4 12.6,57.5C12.6,60.6 15.1,63.1 18.2,63.1C21.3,63.1 23.8,60.6 23.8,57.5ZM79.9,33.9C82.4,33.9 84.5,31.8 84.5,29.3C84.5,26.8 82.4,24.7 79.9,24.7C77.4,24.7 75.3,26.8 75.3,29.3C75.3,31.8 77.3,33.9 79.9,33.9ZM69.6,65.5C69.6,67.3 71,68.7 72.8,68.7C74.6,68.7 76,67.3 76,65.5C76,63.7 74.6,62.3 72.8,62.3C71,62.3 69.6,63.7 69.6,65.5ZM72.8,22.9C74.6,22.9 76,21.5 76,19.7C76,17.9 74.6,16.5 72.8,16.5C71,16.5 69.6,17.9 69.6,19.7C69.6,21.5 71,22.9 72.8,22.9ZM65.7,31.2C67.5,31.2 68.9,29.8 68.9,28C68.9,26.2 67.5,24.8 65.7,24.8C63.9,24.8 62.5,26.2 62.5,28C62.5,29.8 63.9,31.2 65.7,31.2ZM77.2,42.5C77.2,45.6 79.7,48.1 82.8,48.1C85.9,48.1 88.4,45.6 88.4,42.5C88.4,39.4 85.9,36.9 82.8,36.9C79.7,36.9 77.2,39.4 77.2,42.5ZM74,42C74,41.3 73.4,40.7 72.7,40.7C72,40.7 71.4,41.3 71.4,42C71.4,42.7 72,43.3 72.7,43.3C73.4,43.3 74,42.7 74,42ZM64.8,16.1C65.9,16.1 66.7,15.2 66.7,14.2C66.7,13.2 65.8,12.3 64.8,12.3C63.7,12.3 62.9,13.2 62.9,14.2C62.9,15.2 63.8,16.1 64.8,16.1ZM70.8,37.8C71.9,37.8 72.7,36.9 72.7,35.9C72.7,34.8 71.8,34 70.8,34C69.8,34 68.9,34.9 68.9,35.9C68.9,37 69.8,37.8 70.8,37.8ZM31.4,34.5C31.4,32.7 30,31.3 28.2,31.3C26.4,31.3 25,32.7 25,34.5C25,36.3 26.4,37.7 28.2,37.7C30,37.7 31.4,36.3 31.4,34.5ZM64.8,68.7C63.7,68.7 62.9,69.6 62.9,70.6C62.9,71.7 63.8,72.5 64.8,72.5C65.9,72.5 66.7,71.6 66.7,70.6C66.7,69.6 65.9,68.7 64.8,68.7ZM58.3,76.4C55.2,76.4 52.7,78.9 52.7,82C52.7,85.1 55.2,87.6 58.3,87.6C61.4,87.6 63.9,85.1 63.9,82C63.9,78.9 61.4,76.4 58.3,76.4ZM71.5,74.5C69,74.5 66.9,76.6 66.9,79.1C66.9,81.6 69,83.7 71.5,83.7C74,83.7 76.1,81.6 76.1,79.1C76.1,76.6 74,74.5 71.5,74.5ZM57.5,72.5C57.5,73.2 58.1,73.8 58.8,73.8C59.5,73.8 60.1,73.2 60.1,72.5C60.1,71.8 59.5,71.2 58.8,71.2C58.1,71.3 57.5,71.8 57.5,72.5ZM88.5,56.7C87.8,56.7 87.2,57.3 87.2,58C87.2,58.7 87.8,59.3 88.5,59.3C89.2,59.3 89.8,58.7 89.8,58C89.8,57.3 89.1,56.7 88.5,56.7ZM86.5,62.2C85.4,62.2 84.6,63.1 84.6,64.1C84.6,65.2 85.5,66 86.5,66C87.6,66 88.4,65.1 88.4,64.1C88.4,63 87.6,62.2 86.5,62.2ZM56.2,25.5C58.7,25.5 60.8,23.4 60.8,20.9C60.8,18.4 58.7,16.3 56.2,16.3C53.7,16.3 51.6,18.4 51.6,20.9C51.6,23.4 53.7,25.5 56.2,25.5ZM79.9,51.4C77.4,51.4 75.3,53.5 75.3,56C75.3,58.5 77.4,60.6 79.9,60.6C82.4,60.6 84.5,58.5 84.5,56C84.4,53.5 82.4,51.4 79.9,51.4ZM21.1,66.1C18.6,66.1 16.5,68.2 16.5,70.7C16.5,73.2 18.6,75.3 21.1,75.3C23.6,75.3 25.7,73.2 25.7,70.7C25.7,68.2 23.7,66.1 21.1,66.1ZM81.1,68.8C79.3,68.8 77.9,70.2 77.9,72C77.9,73.8 79.3,75.2 81.1,75.2C82.9,75.2 84.3,73.8 84.3,72C84.3,70.2 82.9,68.8 81.1,68.8ZM30.2,62.2C29.1,62.2 28.3,63.1 28.3,64.1C28.3,65.2 29.2,66 30.2,66C31.2,66 32.1,65.1 32.1,64.1C32.1,63 31.2,62.2 30.2,62.2ZM35.3,68.8C33.5,68.8 32.1,70.2 32.1,72C32.1,73.8 33.5,75.2 35.3,75.2C37.1,75.2 38.5,73.8 38.5,72C38.5,70.2 37.1,68.8 35.3,68.8ZM36.2,83.9C35.1,83.9 34.3,84.8 34.3,85.8C34.3,86.8 35.2,87.7 36.2,87.7C37.3,87.7 38.1,86.8 38.1,85.8C38.1,84.8 37.2,83.9 36.2,83.9ZM28.2,77.1C26.4,77.1 25,78.5 25,80.3C25,82.1 26.4,83.5 28.2,83.5C30,83.5 31.4,82.1 31.4,80.3C31.4,78.5 30,77.1 28.2,77.1ZM41,27.5C41,28.2 41.6,28.8 42.3,28.8C43,28.8 43.6,28.2 43.6,27.5C43.6,26.8 43,26.2 42.3,26.2C41.5,26.2 41,26.8 41,27.5ZM48.3,17.9C48.3,14.8 45.8,12.3 42.7,12.3C39.6,12.3 37.1,14.8 37.1,17.9C37.1,21 39.6,23.5 42.7,23.5C45.8,23.6 48.3,21.1 48.3,17.9ZM42.2,86.4C41.5,86.4 40.9,87 40.9,87.7C40.9,88.4 41.5,89 42.2,89C42.9,89 43.5,88.4 43.5,87.7C43.5,87 42.9,86.4 42.2,86.4ZM44.8,74.5C42.3,74.5 40.2,76.6 40.2,79.1C40.2,81.6 42.3,83.7 44.8,83.7C47.3,83.7 49.4,81.6 49.4,79.1C49.4,76.6 47.3,74.5 44.8,74.5Z" style="fill:rgb(62,189,147);fill-rule:nonzero;"/>
            </g>
        </g>
    </g>
</svg>
